<svg xmlns="http://www.w3.org/2000/svg" width="81" height="114.254" viewBox="0 0 81 114.254">
  <path d="M59.938,107.505a5.811,5.811,0,1,1,5.81,5.749A5.818,5.818,0,0,1,59.938,107.505Zm1.869-.015a3.943,3.943,0,1,0,3.94-4.063A3.991,3.991,0,0,0,61.808,107.49Zm-53.249.015a5.811,5.811,0,1,1,5.81,5.749A5.818,5.818,0,0,1,8.559,107.505Zm1.868-.015a3.944,3.944,0,1,0,3.942-4.063A3.992,3.992,0,0,0,10.427,107.49Zm41.425,5.534v-11.1h2.121a4.766,4.766,0,0,1,3.413.843,2.84,2.84,0,0,1,.927,2.028,2.178,2.178,0,0,1-1.212,2.058l-.216.121.233.086a2.628,2.628,0,0,1,1.869,2.71,3.091,3.091,0,0,1-1.361,2.6,5.318,5.318,0,0,1-2.858.653Zm1.869-1.731h1.17c1.84,0,2.227-.869,2.227-1.6,0-.383-.157-1.631-2.182-1.631H53.722Zm.113-4.96h.8c.473,0,1.92,0,1.92-1.34,0-.5-.225-1.337-1.737-1.337h-.986Zm-5.071,6.691-1.21-2.922h-4.21l-1.21,2.922H40.071l4.621-11.1h1.486l4.65,11.1Zm-3.46-8.3-1.344,3.631h2.932l-1.372-3.7h-.158Zm-10.8,8.3v-11.1H36.37v9.368h3.4l-.722,1.731Zm-4.06,0v-11.1H32.31v11.1Zm-4.15,0-2.544-4.331h-.18l-.031.114v4.216H21.667v-11.1h3.362a3.978,3.978,0,0,1,2.683.741,3.38,3.38,0,0,1,1.29,2.65,3.827,3.827,0,0,1-1.052,2.628,3.556,3.556,0,0,1-1.818.9l-.153.037.07.137,2.511,4Zm-2.755-5.68H25c1.574,0,2.135-.96,2.135-1.859A1.863,1.863,0,0,0,25,103.656H23.536ZM0,40A40,40,0,1,1,40,80,40.045,40.045,0,0,1,0,40ZM38.915,75.194c.361.012.722.019,1.085.019.879,0,1.75-.036,2.614-.1V38.528c1.309-.521,2.572-1.073,3.766-1.677V74.629a34.6,34.6,0,0,0,3.7-.888V34.607a15.543,15.543,0,0,0,3.766-3.888V72.371A35.1,35.1,0,0,0,57.4,70.605V22.6H9.393A35.144,35.144,0,0,0,12.866,62.42a22.114,22.114,0,0,1,3.651-9.72V66.217a35.589,35.589,0,0,0,3.7,2.9V48.675a27.286,27.286,0,0,1,3.766-2.64V71.356a35.027,35.027,0,0,0,3.7,1.633V44.125c1.23-.56,2.491-1.076,3.767-1.563v31.6a34.83,34.83,0,0,0,3.7.716V41.22c1.265-.443,2.525-.876,3.766-1.315Zm23.27-7.869A35.165,35.165,0,0,0,70.608,22.6H62.185Zm0-49.511h5.143a35.56,35.56,0,0,0-5.143-5.142Zm-49.511,0H57.4V9.392a35.164,35.164,0,0,0-44.726,8.422Z" transform="translate(0.5 0.5)" fill="#292B2C" stroke="rgba(0,0,0,0)" stroke-miterlimit="10" stroke-width="1"/>
</svg>